<svg display="none"  fill="none" xmlns="http://www.w3.org/2000/svg">

<symbol width="28" height="41" viewBox="0 0 28 41" id="analysis-icon">
<path d="M19.8166 33.9269V35.4755C19.8166 36.7078 18.8773 37.7329 17.6551 37.9074L17.259 39.3142C17.044 40.0775 16.331 40.6119 15.5049 40.6119H11.5779C10.7518 40.6119 10.0388 40.0775 9.82382 39.3142L9.43905 37.9074C8.20551 37.722 7.26621 36.7078 7.26621 35.4646V33.916C7.26621 33.0872 7.95654 32.422 8.81662 32.422H18.2662C19.1263 32.4329 19.8166 33.0981 19.8166 33.9269ZM27.0934 13.0541C27.0934 16.5765 25.6448 19.7718 23.2909 22.1164C21.5028 23.9049 20.3485 26.1841 19.9637 28.616C19.794 29.6629 18.8547 30.4372 17.7456 30.4372H9.3372C8.23946 30.4372 7.28884 29.6738 7.13041 28.6269C6.73431 26.195 5.56868 23.8831 3.78061 22.1055C1.47197 19.7936 0.0347264 16.6528 0.00077574 13.1959C-0.0784424 5.93289 5.9195 0.0549038 13.4565 0.000377011C20.9823 -0.0541497 27.0934 5.81293 27.0934 13.0541ZM15.0748 5.1477C15.0748 4.34071 14.3958 3.67548 13.5471 3.67548C8.16024 3.67548 3.76929 7.89585 3.76929 13.0977C3.76929 13.9047 4.44831 14.5699 5.29707 14.5699C6.13452 14.5699 6.82485 13.9156 6.82485 13.0977C6.82485 9.52075 9.84645 6.61992 13.5471 6.61992C14.3958 6.61992 15.0748 5.9656 15.0748 5.1477Z" fill="black"/>
</symbol>

<symbol  width="48" height="39" viewBox="0 0 48 39" id="design-icon">
<path d="M19.9946 15.618C17.4879 15.618 16.0733 17.6168 15.8197 19.4739C15.6437 20.7631 15.1752 22.0427 14.7313 23.0315H19.9946C22.2911 23.0315 24.1595 21.3687 24.1595 19.3248C24.1595 17.2808 22.2911 15.618 19.9946 15.618Z" fill="black"/>
<path d="M45.9983 -0.050354H1.38828C0.621578 -0.050354 0 0.502863 0 1.18524V23.0316H11.7053C12.1457 22.1944 12.8609 20.6579 13.0634 19.1757C13.2846 17.5566 14.0437 16.0686 15.201 14.9859C16.4686 13.8 18.1711 13.1469 19.9947 13.1469C20.3277 13.1469 20.6551 13.1692 20.9758 13.2097L29.1013 5.97778C29.8878 5.27761 30.9337 4.89202 32.0462 4.89202C33.1586 4.89202 34.2046 5.27761 34.9912 5.97786C35.7777 6.67787 36.2111 7.60877 36.2111 8.59881C36.2111 9.58893 35.7777 10.5197 34.991 11.2199L26.8655 18.4519C26.9109 18.7372 26.9361 19.0284 26.9361 19.3248C26.9361 20.7146 26.4174 21.9983 25.544 23.0316H47.3865V1.18524C47.3865 0.502781 46.7649 -0.050354 45.9983 -0.050354Z" fill="black"/>
<path d="M25.7831 15.9204L33.0277 9.47246C33.29 9.23902 33.4344 8.92872 33.4344 8.59882C33.4344 8.26883 33.29 7.95861 33.0277 7.72525C32.7654 7.49172 32.4168 7.36322 32.0461 7.36322C31.6753 7.36322 31.3268 7.49172 31.0646 7.72509L23.8199 14.1731C24.5983 14.6325 25.2669 15.2275 25.7831 15.9204Z" fill="black"/>
<path d="M0 30.0333C0 30.7156 0.621578 31.2688 1.38828 31.2688H45.9983C46.7649 31.2688 47.3865 30.7156 47.3865 30.0333V25.5027H0V30.0333Z" fill="black"/>
<path d="M30.6347 36.2112H29.2464V33.7401H18.1402V36.2112H16.7519C15.9852 36.2112 15.3636 36.7645 15.3636 37.4468C15.3636 38.1292 15.9852 38.6824 16.7519 38.6824H30.6347C31.4013 38.6824 32.0229 38.1292 32.0229 37.4468C32.0229 36.7645 31.4013 36.2112 30.6347 36.2112Z" fill="black"/>
</symbol>

<symbol width="51" height="43" viewBox="0 0 51 43" id="development-icon">
<path d="M7.09174 5.72223H43.0182C46.9281 5.72223 50.1099 8.43007 50.1099 11.7584V30.8874C50.1099 34.2158 46.9281 36.9236 43.0182 36.9236H7.09174C3.1818 36.9236 1.52588e-05 34.2158 1.52588e-05 30.8874V11.7584C1.52588e-05 8.43007 3.1818 5.72223 7.09174 5.72223ZM31.9245 15.325L39.3852 21.6744L32.7506 27.3208C32.177 27.8089 32.177 28.6002 32.7506 29.0875C33.3231 29.5756 34.2529 29.5756 34.8264 29.0875L42.4995 22.5573C43.073 22.0692 43.073 21.2788 42.4995 20.7907L34.0014 13.5584C33.4278 13.0703 32.4981 13.0703 31.9245 13.5584C31.352 14.0457 31.352 14.8369 31.9245 15.325ZM19.815 12.3856L27.5781 31.0923C27.8482 31.7437 28.687 32.0843 29.4513 31.8545C30.2157 31.6246 30.617 30.9107 30.3469 30.2602L22.5837 11.5535C22.3136 10.903 21.4758 10.5615 20.7105 10.7914C19.9461 11.0213 19.5448 11.7351 19.815 12.3856ZM7.61046 21.8552L16.1086 29.0875C16.6821 29.5756 17.6119 29.5756 18.1854 29.0875C18.758 28.6002 18.758 27.8089 18.1854 27.3208L10.7247 20.9714L17.3594 15.325C17.9329 14.8369 17.9329 14.0457 17.3594 13.5584C16.7868 13.0703 15.8571 13.0703 15.2835 13.5584L7.61046 20.0885C7.03693 20.5766 7.03693 21.3671 7.61046 21.8552Z" fill="white"/>
</symbol>

<symbol width="43" height="41" viewBox="0 0 43 41" id="maintenance-icon">
<path d="M23.0957 0H3.7793C1.69539 0 0 1.61654 0 3.60352V9.60938H18.8965L23.0957 0ZM6.29883 6.00586C5.6031 6.00586 5.03906 5.46805 5.03906 4.80469C5.03906 4.14132 5.6031 3.60352 6.29883 3.60352C6.99455 3.60352 7.55859 4.14132 7.55859 4.80469C7.55859 5.46805 6.99455 6.00586 6.29883 6.00586ZM11.3379 6.00586C10.6422 6.00586 10.0781 5.46805 10.0781 4.80469C10.0781 4.14132 10.6422 3.60352 11.3379 3.60352C12.0336 3.60352 12.5977 4.14132 12.5977 4.80469C12.5977 5.46805 12.0336 6.00586 11.3379 6.00586ZM16.377 6.00586C15.6812 6.00586 15.1172 5.46805 15.1172 4.80469C15.1172 4.14132 15.6812 3.60352 16.377 3.60352C17.0727 3.60352 17.6367 4.14132 17.6367 4.80469C17.6367 5.46805 17.0727 6.00586 16.377 6.00586Z" fill="black"/>
<path d="M25.2794 18.8879V23.3027C25.2794 23.9661 24.7153 24.5039 24.0196 24.5039H18.9805C18.2847 24.5039 17.7207 23.9661 17.7207 23.3027V18.8879C16.1653 20.0025 15.2012 21.7688 15.2012 23.6846C15.2012 25.9713 16.5426 28.028 18.7018 29.0523C19.1298 29.2553 19.4004 29.6718 19.4004 30.1277V41H23.5996V30.1277C23.5996 29.6719 23.8702 29.2553 24.2982 29.0523C26.4574 28.0281 27.7988 25.9713 27.7988 23.6846C27.7988 21.7687 26.8348 20.0025 25.2794 18.8879Z" fill="black"/>
<path d="M39.2207 0H25.8252L20.8992 11.2726C20.7036 11.7202 20.2449 12.0117 19.7363 12.0117H0V37.3965C0 39.3835 1.69539 41 3.7793 41H16.8809V30.8344C14.2719 29.3099 12.6816 26.6344 12.6816 23.6847C12.6816 20.1341 15.044 16.9511 18.56 15.7643C18.9456 15.634 19.3734 15.6904 19.7076 15.9157C20.0416 16.1407 20.2402 16.5064 20.2402 16.8965V22.1016H22.7598V16.8965C22.7598 16.5064 22.9585 16.1407 23.2926 15.9156C23.6266 15.6904 24.0546 15.634 24.44 15.7642C27.956 16.9511 30.3184 20.134 30.3184 23.6846C30.3184 26.6343 28.7281 29.3099 26.1191 30.8344V41H39.2207C41.3046 41 43 39.3835 43 37.3965V3.60352C43 1.61654 41.3046 0 39.2207 0ZM9.6582 18.0176H6.29883C5.6031 18.0176 5.03906 17.4798 5.03906 16.8164C5.03906 16.153 5.6031 15.6152 6.29883 15.6152H9.6582C10.3539 15.6152 10.918 16.153 10.918 16.8164C10.918 17.4798 10.3539 18.0176 9.6582 18.0176Z" fill="black"/>
</symbol>

<symbol width="44" height="42" viewBox="0 0 44 42" id="testing-icon">
<path d="M40.1328 0H3.86719C1.73473 0 0 1.65588 0 3.69141V28.4648C0 30.5004 1.73473 32.1562 3.86719 32.1562H15.4688V34.6172H28.4453V32.1562H40.1328C42.2653 32.1562 44 30.5004 44 28.4648V3.69141C44 1.65588 42.2653 0 40.1328 0ZM15.0911 21.8699L9.93489 26.7918C9.43138 27.2724 8.61558 27.2724 8.11207 26.7918L5.53395 24.3309C5.03035 23.8503 5.03035 23.0716 5.53395 22.591C6.03745 22.1104 6.85326 22.1104 7.35677 22.591L9.02344 24.1819L13.2683 20.13C13.7718 19.6494 14.5876 19.6494 15.0911 20.13C15.5946 20.6106 15.5946 21.3893 15.0911 21.8699ZM15.0911 14.4871L9.93489 19.409C9.43138 19.8896 8.61558 19.8896 8.11207 19.409L5.53395 16.9481C5.03035 16.4674 5.03035 15.6888 5.53395 15.2082C6.03745 14.7276 6.85326 14.7276 7.35677 15.2082L9.02344 16.7991L13.2683 12.7472C13.7718 12.2665 14.5876 12.2665 15.0911 12.7472C15.5946 13.2278 15.5946 14.0065 15.0911 14.4871ZM15.0911 7.10432L9.93489 12.0262C9.43138 12.5068 8.61558 12.5068 8.11207 12.0262L5.53395 9.56525C5.03035 9.08463 5.03035 8.30599 5.53395 7.82537C6.03745 7.34475 6.85326 7.34475 7.35677 7.82537L9.02344 9.41628L13.2683 5.36435C13.7718 4.88373 14.5876 4.88373 15.0911 5.36435C15.5946 5.84497 15.5946 6.62369 15.0911 7.10432ZM37.5547 24.6914H19.3359C18.6234 24.6914 18.0469 24.1411 18.0469 23.4609C18.0469 22.7808 18.6234 22.2305 19.3359 22.2305H37.5547C38.2672 22.2305 38.8438 22.7808 38.8438 23.4609C38.8438 24.1411 38.2672 24.6914 37.5547 24.6914ZM37.5547 17.3086H19.3359C18.6234 17.3086 18.0469 16.7582 18.0469 16.0781C18.0469 15.398 18.6234 14.8477 19.3359 14.8477H37.5547C38.2672 14.8477 38.8438 15.398 38.8438 16.0781C38.8438 16.7582 38.2672 17.3086 37.5547 17.3086ZM37.5547 9.92578H19.3359C18.6234 9.92578 18.0469 9.37543 18.0469 8.69531C18.0469 8.01519 18.6234 7.46484 19.3359 7.46484H37.5547C38.2672 7.46484 38.8438 8.01519 38.8438 8.69531C38.8438 9.37543 38.2672 9.92578 37.5547 9.92578Z" fill="black"/>
<path d="M31.0234 37.0781H12.9766C10.1328 37.0781 7.82031 39.2855 7.82031 42H36.1797C36.1797 39.2855 33.8672 37.0781 31.0234 37.0781Z" fill="black"/>

</symbol>

<symbol width="42" height="36" viewBox="0 0 42 36" id="integration-icon">
<path d="M16.0781 12.7266H27.1523V1.05469C27.1523 0.4725 26.6011 0 25.9219 0H1.23047C0.55125 0 0 0.4725 0 1.05469V22.2188C0 22.8009 0.55125 23.2734 1.23047 23.2734H14.8477V13.7812C14.8477 13.1991 15.3989 12.7266 16.0781 12.7266Z" fill="black"/>
<path d="M40.7695 12.7266H27.1523V22.2188C27.1523 22.8009 26.6011 23.2734 25.9219 23.2734H14.8477V34.9453C14.8477 35.5275 15.3989 36 16.0781 36H40.7695C41.4487 36 42 35.5275 42 34.9453V13.7813C42 13.1991 41.4487 12.7266 40.7695 12.7266Z" fill="black"/>
</symbol>

<symbol width="48" height="30" viewBox="0 0 48 30" id="arrow-icon">
<path d="M47.0735 15.4196L32.2727 29.2638C31.8872 29.6243 31.2628 29.6243 30.8774 29.2638C30.492 28.9032 30.492 28.3192 30.8774 27.9587L43.9939 15.69L0.986752 15.69C0.441343 15.69 1.33251e-06 15.2772 1.38019e-06 14.767C1.42787e-06 14.2569 0.441343 13.8441 0.986753 13.8441L43.9939 13.8441L30.8774 1.57547C30.492 1.21491 30.492 0.630868 30.8774 0.2704C31.0701 0.0901667 31.3227 6.37602e-06 31.5751 6.39666e-06C31.8276 6.41731e-06 32.08 0.0901668 32.2728 0.2704L47.0736 14.1145C47.459 14.475 47.459 15.0591 47.0735 15.4196Z" fill="black"/>
</symbol>

<symbol width="27" height="28" viewBox="0 0 27 28" id="globe-icon">
<path d="M19.6743 6.13346L19.7004 6.33819L19.4 6.40171L19.36 6.83783H19.7198L20.1984 6.79076L20.4455 6.49075L20.1829 6.3864L20.0391 6.21739L19.8231 5.86011L19.7198 5.3548L19.3139 5.4393L19.2001 5.61738V5.81814L19.3955 5.95482L19.6743 6.13346Z" fill="white"/>
<path d="M19.3284 6.30131L19.35 6.02795L19.1118 5.92303L18.7787 6.00186L18.5316 6.40679V6.66937H18.8197L19.3284 6.30131Z" fill="white"/>
<path d="M12.4708 7.46225L12.3975 7.65507H12.0427V7.84222H12.1271C12.1271 7.84222 12.1321 7.88192 12.1393 7.9341L12.357 7.91538L12.493 7.82918L12.5286 7.65507L12.7046 7.63976L12.774 7.49344L12.6124 7.45941L12.4708 7.46225Z" fill="white"/>
<path d="M11.5563 7.80191L11.5424 7.9851L11.7995 7.96298L11.8262 7.77923L11.6718 7.65503L11.5563 7.80191Z" fill="white"/>
<path d="M26.9967 13.6456C26.9928 13.2424 26.9728 12.842 26.9356 12.4478C26.8107 11.1338 26.503 9.87421 26.0422 8.69345C26.0077 8.60555 25.9761 8.51651 25.9394 8.42974C25.3253 6.94785 24.463 5.59866 23.4074 4.43435C23.338 4.35835 23.2675 4.28349 23.197 4.20977C22.9976 3.99823 22.7927 3.7918 22.5806 3.59387C20.1807 1.36223 16.9935 0 13.4997 0C9.97654 0 6.76652 1.38662 4.35998 3.65228C3.79916 4.18028 3.28387 4.75648 2.81633 5.37351C1.05279 7.70326 0 10.6217 0 13.7879C0 21.3914 6.05633 27.5764 13.5003 27.5764C18.7365 27.5764 23.2825 24.514 25.5202 20.0518C25.9988 19.0979 26.3714 18.0811 26.6224 17.0154C26.6863 16.7449 26.7412 16.4733 26.789 16.1982C26.925 15.415 26.9994 14.6097 26.9994 13.7879C27 13.7403 26.9972 13.6932 26.9967 13.6456ZM24.4558 8.13484L24.534 8.04523C24.6368 8.24883 24.7328 8.45583 24.8245 8.66567L24.6967 8.66056L24.4558 8.69459V8.13484ZM22.5051 5.72909L22.5073 5.1132C22.7194 5.34288 22.9238 5.57937 23.1192 5.82437L22.876 6.19414L22.0259 6.1862L21.9726 6.00528L22.5051 5.72909ZM6.22013 4.19842V4.17517H6.49055L6.51387 4.08046H6.95642V4.27782L6.82927 4.45136H6.21958L6.22013 4.19842ZM6.65213 4.81375C6.65213 4.81375 6.92255 4.76668 6.94587 4.76668C6.96919 4.76668 6.94587 5.04231 6.94587 5.04231L6.33619 5.08144L6.22013 4.93966L6.65213 4.81375ZM25.3159 10.2871H24.328L23.7261 9.82941L23.0926 9.89236V10.2871H22.8921L22.6756 10.1294L21.5783 9.84529V9.11937L20.1879 9.22995L19.7571 9.46645H19.2051L18.9347 9.43866L18.2645 9.81863V10.5338L16.8946 11.5433L17.0085 11.9743H17.2861L17.2134 12.3849L17.0179 12.458L17.0074 13.531L18.1912 14.908H18.7065L18.7376 14.8241H19.6638L19.9309 14.5717H20.4561L20.7443 14.8666L21.5273 14.9494L21.4234 16.0128L22.2924 17.5797L21.8349 18.473L21.866 18.8938L22.2263 19.2607V20.2724L22.6994 20.9224V21.7628H23.1081C20.8337 24.6149 17.3722 26.4416 13.4992 26.4416C6.66824 26.4422 1.11054 20.7653 1.11054 13.7879C1.11054 12.0316 1.46369 10.3574 2.09948 8.8358V8.44108L2.54258 7.89154C2.69639 7.59493 2.86131 7.3057 3.03733 7.02384L3.05732 7.25353L2.54314 7.89154C2.38377 8.19892 2.23496 8.51311 2.10003 8.8358V9.55605L2.61477 9.80899V10.81L3.1084 11.6703L3.50986 11.7332L3.5615 11.4383L3.08786 10.692L2.99513 9.96665H3.27276L3.38992 10.713L4.07457 11.7332L3.89799 12.0627L4.33333 12.7427L5.41444 13.0161V12.8374L5.84699 12.9004L5.8059 13.2157L6.14573 13.2792L6.67046 13.4255L7.41174 14.2881L8.35848 14.3613L8.45121 15.1502L7.80321 15.6129L7.77267 16.3173L7.67994 16.7483L8.61723 17.9467L8.68886 18.3573C8.68886 18.3573 9.02869 18.4514 9.07033 18.4514C9.11142 18.4514 9.83217 19.0089 9.83217 19.0089V21.1747L10.0893 21.2485L9.91434 22.2477L10.3469 22.837L10.2669 23.8272L10.8383 24.8531L11.5718 25.5076L12.3092 25.5212L12.3814 25.279L11.8395 24.8128L11.8706 24.5815L11.9677 24.2979L11.9883 24.0087L11.6218 23.9973L11.4369 23.7603L11.7412 23.4614L11.7823 23.2357L11.4424 23.1364L11.4624 22.9266L11.9466 22.8517L12.6829 22.4905L12.93 22.0277L13.7024 21.0182L13.5269 20.2288L13.764 19.8085L14.4742 19.8307L14.9523 19.4439L15.1067 17.9206L15.637 17.2327L15.7297 16.7909L15.246 16.6326L14.9268 16.0978L13.8357 16.0865L12.9706 15.7496L12.9295 15.1195L12.6407 14.604L11.8583 14.5921L11.4064 13.8673L11.0049 13.6671L10.9844 13.8883L10.2536 13.9326L9.98597 13.552L9.22359 13.3938L8.59558 14.135L7.6072 13.9637L7.53557 12.8261L6.81427 12.7002L7.10357 12.1421L7.02083 11.8217L6.07299 12.4688L5.47663 12.3945L5.26396 11.9187L5.39389 11.4281L5.72261 10.8094L6.47944 10.4181L7.94092 10.4175L7.93703 10.8729L8.46231 11.1224L8.42067 10.3444L8.79936 9.95531L9.56341 9.44263L9.61561 9.08193L10.3774 8.27208L11.1876 7.81384L11.1159 7.75373L11.6646 7.2263L11.8656 7.28075L11.9577 7.39871L12.166 7.16279L12.217 7.13953L11.9888 7.10664L11.7573 7.02781V6.80096L11.88 6.69831H12.1504L12.2742 6.75389L12.3814 6.97507L12.5125 6.95465V6.93537L12.5502 6.94841L12.93 6.88886L12.9839 6.69944L13.2004 6.75502V6.96032L12.9994 7.10154H13L13.0294 7.32668L13.7174 7.54333C13.7174 7.54333 13.7179 7.54616 13.7191 7.55183L13.8773 7.53822L13.8879 7.23368L13.3426 6.98017L13.3115 6.83385L13.764 6.67619L13.784 6.23383L13.3109 5.9395L13.2798 5.19373L12.6313 5.51926H12.3947L12.4569 4.95157L11.574 4.73889L11.2087 5.02075V5.88052L10.5518 6.09319L10.2886 6.65351L10.0032 6.70058V5.98373L9.38573 5.8964L9.077 5.6911L8.95262 5.22662L10.057 4.56649L10.5973 4.39862L10.6517 4.76952L10.9527 4.75364L10.976 4.56706L11.2909 4.52112L11.2964 4.4559L11.1609 4.39862L11.1298 4.20126L11.5169 4.1678L11.7506 3.9194L11.7634 3.90125L11.7662 3.90239L11.8372 3.82752L12.6507 3.72261L13.0105 4.03453L12.0671 4.54777L13.2676 4.83701L13.4231 4.42698H13.9478L14.1333 4.06969L13.7624 3.97498V3.52298L12.5991 2.99669L11.7962 3.0914L11.3431 3.33356L11.3741 3.92223L10.9005 3.84851L10.8278 3.52298L11.2814 3.10217L10.458 3.0602L10.2214 3.13336L10.1187 3.41693L10.4274 3.47024L10.3658 3.78556L9.84105 3.81732L9.75887 4.02715L8.99759 4.0487C8.99759 4.0487 8.97649 3.60748 8.94595 3.60748C8.91541 3.60748 9.54287 3.5967 9.54287 3.5967L9.99652 3.14414L9.74887 3.01767L9.4196 3.34433L8.87321 3.31258L8.54394 2.8498H7.84374L7.11301 3.40729H7.78266L7.84374 3.60748L7.66994 3.77251L8.41123 3.7935L8.5245 4.06685L7.68993 4.03509L7.6494 3.82469L7.12467 3.709L6.84648 3.55134L6.2218 3.55644C8.26686 2.03484 10.7817 1.13425 13.4997 1.13425C16.6326 1.13425 19.495 2.33032 21.6789 4.2954L21.5317 4.56422L20.9603 4.79277L20.7193 5.05989L20.7749 5.37124L21.0697 5.41321L21.2474 5.86691L21.756 5.65764L21.8399 6.26446H21.6866L21.2691 6.20151L20.806 6.28091L20.3579 6.92743L19.7171 7.03008L19.6243 7.5904L19.8948 7.65562L19.8165 8.01574L19.1801 7.8853L18.5965 8.01574L18.4727 8.34751L18.5738 9.04394L18.9164 9.20784L19.4911 9.20443L19.8792 9.1687L19.9975 8.85338L20.6038 8.04863L21.0031 8.132L21.3962 7.76904L21.4695 8.0526L22.4368 8.71898L22.3185 8.88117L21.8826 8.85735L22.0503 9.10008L22.3185 9.1602L22.6328 9.02636L22.6261 8.63958L22.7655 8.56812L22.6533 8.44676L22.0081 8.07926L21.8382 7.59096H22.3746L22.5462 7.7645L23.0082 8.17113L23.0276 8.66283L23.5062 9.18345L23.6845 8.47001L24.016 8.28512L24.0782 8.8687L24.4019 9.23166L25.0477 9.22031C25.1726 9.54868 25.2848 9.88272 25.3831 10.2236L25.3159 10.2871ZM7.36343 6.26446L7.68771 6.1068L7.9809 6.17826L7.87984 6.58035L7.56333 6.683L7.36343 6.26446ZM9.08422 7.21099V7.4713H8.34349L8.06585 7.39247L8.13526 7.21099L8.49119 7.0607H8.9776V7.21099H9.08422ZM9.42515 7.57395V7.82632L9.23969 7.94825L9.0087 7.99192C9.0087 7.99192 9.0087 7.61365 9.0087 7.57395H9.42515ZM9.21637 7.4713V7.17129L9.47124 7.40835L9.21637 7.4713ZM9.33242 8.07812V8.32369L9.15529 8.50517H8.76161L8.82324 8.22955L9.00926 8.2131L9.04757 8.11839L9.33242 8.07812ZM8.35182 7.57395H8.76105L8.23632 8.32312L8.01976 8.20459L8.06641 7.88927L8.35182 7.57395ZM10.0276 7.99192V8.23692H9.63393L9.52621 8.07812V7.85014H9.55731L10.0276 7.99192ZM9.66392 7.65505L9.77608 7.53482L9.96543 7.65505L9.81384 7.78265L9.66392 7.65505ZM25.5169 10.9257L25.5557 10.8792C25.5718 10.9506 25.5891 11.0221 25.6046 11.0947L25.5169 10.9257Z" fill="white"/>
<path d="M2.09998 8.44108V8.8358C2.23491 8.51368 2.38372 8.19949 2.54308 7.89154L2.09998 8.44108Z" fill="white"/>

</symbol>

<symbol  width="25" height="24" viewBox="0 0 25 24" id="edin-icon">
<path d="M21.3379 0H3.66211C1.64299 0 0 1.55171 0 3.45866V20.1525C0 22.0594 1.64299 23.6111 3.66211 23.6111H21.3379C23.357 23.6111 25 22.0594 25 20.1525V3.45866C25 1.55171 23.357 0 21.3379 0ZM8.83789 18.7229H5.9082V9.03863H8.83789V18.7229ZM8.83789 7.65516H5.9082V4.88824H8.83789V7.65516ZM19.0918 18.7229H16.1621V13.189C16.1621 12.4263 15.5048 11.8056 14.6973 11.8056C13.8897 11.8056 13.2324 12.4263 13.2324 13.189V18.7229H10.3027V9.03863H13.2324V9.56013C13.9999 9.33478 14.4985 9.03863 15.4297 9.03863C17.4166 9.04061 19.0918 10.724 19.0918 12.7135V18.7229Z" fill="white"/>
</symbol>

<symbol  width="25" height="24" viewBox="0 0 25 24" id="facebook-icon">
<path d="M21.631 0H3.3688C1.5083 0 0 1.42445 0 3.18164V20.4293C0 22.1865 1.50824 23.611 3.3688 23.611H12.3756L12.391 15.1737H10.07C9.76839 15.1737 9.52358 14.9434 9.52242 14.6585L9.51129 11.9388C9.51013 11.6524 9.75567 11.4196 10.0589 11.4196H12.3757V8.7917C12.3757 5.74203 14.3478 4.08147 17.2283 4.08147H19.592C19.8944 4.08147 20.1397 4.31302 20.1397 4.5987V6.89195C20.1397 7.17751 19.8946 7.40901 19.5923 7.40919L18.1417 7.40982C16.5752 7.40982 16.2719 8.11286 16.2719 9.14461V11.4197H19.7141C20.0421 11.4197 20.2965 11.6902 20.2579 11.9978L19.9166 14.7175C19.8839 14.9777 19.6502 15.1738 19.3728 15.1738H16.2872L16.2719 23.6111H21.6311C23.4916 23.6111 24.9998 22.1867 24.9998 20.4295V3.18164C24.9998 1.42445 23.4915 0 21.631 0Z" fill="white"/>
</symbol>

<symbol width="25" height="24" viewBox="0 0 25 24" id="instagram-icon">
<path d="M21.3379 0H3.66211C1.64299 0 0 1.55171 0 3.45866V20.1525C0 22.0594 1.64299 23.6111 3.66211 23.6111H21.3379C23.357 23.6111 25 22.0594 25 20.1525V3.45866C25 1.55171 23.357 0 21.3379 0ZM12.5488 17.985C8.91399 17.985 5.95703 15.1923 5.95703 11.7594C5.95703 8.32654 8.91399 5.53385 12.5488 5.53385C16.1837 5.53385 19.1406 8.32654 19.1406 11.7594C19.1406 15.1923 16.1837 17.985 12.5488 17.985ZM19.873 6.91732C18.6615 6.91732 17.6758 5.98636 17.6758 4.84212C17.6758 3.69788 18.6615 2.76693 19.873 2.76693C21.0846 2.76693 22.0703 3.69788 22.0703 4.84212C22.0703 5.98636 21.0846 6.91732 19.873 6.91732Z" fill="white"/>
<path d="M19.873 4.15039C19.4689 4.15039 19.1406 4.46041 19.1406 4.84212C19.1406 5.22384 19.4689 5.53385 19.873 5.53385C20.2772 5.53385 20.6055 5.22384 20.6055 4.84212C20.6055 4.46041 20.2772 4.15039 19.873 4.15039Z" fill="white"/>
<path d="M12.5488 6.91748C9.72214 6.91748 7.42188 9.08995 7.42188 11.7596C7.42188 14.4293 9.72214 16.6017 12.5488 16.6017C15.3755 16.6017 17.6758 14.4293 17.6758 11.7596C17.6758 9.08995 15.3755 6.91748 12.5488 6.91748Z" fill="white"/>
</symbol>

</svg>